<?xml version="1.0" standalone="no"?>
<!DOCTYPE svg PUBLIC "-//W3C//DTD SVG 20010904//EN"
 "http://www.w3.org/TR/2001/REC-SVG-20010904/DTD/svg10.dtd">
<svg version="1.0" xmlns="http://www.w3.org/2000/svg"
 width="96.000000pt" height="96.000000pt" viewBox="0 0 96.000000 96.000000"
 preserveAspectRatio="xMidYMid meet">
<metadata>
Created by potrace 1.11, written by Peter Selinger 2001-2013
</metadata>
<g transform="translate(0.000000,96.000000) scale(0.100000,-0.100000)"
fill="#000000" stroke="none">
<path d="M376 858 c-9 -12 -16 -30 -16 -40 0 -16 -11 -18 -115 -18 -110 0
-117 -1 -141 -25 l-25 -25 3 -275 c3 -248 5 -276 21 -292 16 -16 43 -18 242
-21 220 -3 225 -3 242 -26 40 -50 124 -68 188 -42 l39 17 58 -58 c55 -55 58
-56 72 -38 14 19 11 24 -40 76 l-55 55 16 37 c12 29 15 86 15 302 l0 266 -25
24 c-23 24 -30 25 -140 25 -108 0 -115 1 -115 20 0 11 -9 29 -20 40 -17 17
-33 20 -104 20 -76 0 -86 -2 -100 -22z m182 -40 c3 -16 -6 -18 -77 -18 -75 0
-81 2 -81 20 0 19 5 21 77 18 65 -3 78 -6 81 -20z"/>
</g>
</svg>
